<?xml version="1.0" encoding="utf-8"?>
<!-- Generator: Adobe Illustrator 25.0.0, SVG Export Plug-In . SVG Version: 6.00 Build 0)  -->
<svg version="1.1" id="Layer_1" xmlns="http://www.w3.org/2000/svg" xmlns:xlink="http://www.w3.org/1999/xlink" x="0px" y="0px"
	 viewBox="0 0 32 32" style="enable-background:new 0 0 32 32;" xml:space="preserve">
<style type="text/css">
	.st0{fill:#FFFFFF;}
</style>
<g>
	<path class="st0" d="M28.5,14.9L4.5,1C4,0.7,3.4,0.9,3.1,1.4C3,1.5,3,1.7,3,1.9v10.4c0,0.4,0.2,0.7,0.5,0.9l4.7,2.5l-4.7,2.5
		C3.2,18.4,3,18.8,3,19.1v10.4c0,0.6,0.4,1,1,1c0.2,0,0.3,0,0.5-0.1l24-13.9c0.5-0.3,0.6-0.9,0.4-1.4C28.8,15.1,28.7,14.9,28.5,14.9
		z M5,27.8v-8.1l5.8-3.1c0.5-0.3,0.7-0.9,0.4-1.4c-0.1-0.2-0.2-0.3-0.4-0.4L5,11.7V3.6l21,12.1L5,27.8z"/>
</g>
</svg>
